# xmcd CD database file
#
# Track frame offsets:
#	150
#	37417
#	68152
#	104609
#	112618
#	138738
#
# Disc length: 2440 seconds
#
# Revision: 0
# Processed by: cddbd v1.5.2PL0 Copyright (c) Steve Scherf et al.
# Submitted via: CDex 1.82
#
DISCID=56098606
DTITLE=La Zone de Ramsay Hunt  - sans titre
DYEAR=2009
DGENRE=Jazz
TTITLE0=Mystery Stone
TTITLE1=Ivan Drago
TTITLE2=Mr Jardin
TTITLE3=Hypocapnie
TTITLE4=Wood work
TTITLE5=Monorail cat
EXTD=YEAR: 2009
EXTT0=
EXTT1=
EXTT2=
EXTT3=
EXTT4=
EXTT5=
PLAYORDER=
